<?xml version="1.0" encoding="iso-8859-1"?>
<!-- Generator: Adobe Illustrator 19.0.0, SVG Export Plug-In . SVG Version: 6.00 Build 0)  -->
<svg version="1.1" id="Layer_1" xmlns="http://www.w3.org/2000/svg" xmlns:xlink="http://www.w3.org/1999/xlink" x="0px" y="0px"
	 viewBox="0 0 485 485" style="enable-background:new 0 0 485 485;" xml:space="preserve">
<g>
	<path d="M485,143.938C485,85.248,437.252,37.5,378.563,37.5H106.438C47.748,37.5,0,85.248,0,143.938v15h30V447.5h30V158.938h365
		V447.5h30V158.938h30V143.938z M106.438,67.5h272.125c37.016,0,67.97,26.446,74.96,61.438H31.478
		C38.467,93.946,69.422,67.5,106.438,67.5z"/>
	<polygon points="105,395.907 130,395.907 130,447.5 160,447.5 160,395.907 325,395.907 325,447.5 355,447.5 355,395.907 
		380,395.907 380,365.907 105,365.907 	"/>
</g>
<g>
</g>
<g>
</g>
<g>
</g>
<g>
</g>
<g>
</g>
<g>
</g>
<g>
</g>
<g>
</g>
<g>
</g>
<g>
</g>
<g>
</g>
<g>
</g>
<g>
</g>
<g>
</g>
<g>
</g>
</svg>
