<svg height="512pt" viewBox="0 0 511 512" width="512pt" xmlns="http://www.w3.org/2000/svg"><path d="m158.546875 432.46875c0-43.589844-35.449219-79.046875-79.019531-79.046875-21.9375 0-44.082032 10.378906-59.039063 26.566406-12.90625 14.515625-19.988281 33.089844-19.988281 52.480469 0 43.59375 35.449219 79.050781 79.027344 79.050781 19.414062 0 38.984375-7.980469 53.480468-20.921875 16.230469-14.953125 25.539063-36.144531 25.539063-58.128906zm-50.027344 17.140625h-12.921875v12.929687c0 8.882813-7.199218 16.070313-16.070312 16.070313-8.878906 0-16.066406-7.1875-16.066406-16.070313v-12.929687h-12.929688c-8.871094 0-16.070312-7.199219-16.070312-16.066406 0-8.871094 7.199218-16.070313 16.070312-16.070313h12.929688v-12.929687c0-8.882813 7.1875-16.070313 16.066406-16.070313 8.871094 0 16.070312 7.1875 16.070312 16.070313v12.929687h12.921875c8.878907 0 16.066407 7.199219 16.066407 16.070313 0 8.867187-7.1875 16.066406-16.066407 16.066406zm0 0"/><path d="m256.410156 245.128906c16.757813 0 30.390625-13.640625 30.390625-30.40625s-13.632812-30.40625-30.390625-30.40625c-16.757812 0-30.390625 13.640625-30.390625 30.40625s13.632813 30.40625 30.390625 30.40625zm0 0"/><path d="m256.410156 275.175781c-27.625 0-50.910156 18.9375-57.574218 44.515625h115.148437c-6.660156-25.578125-29.949219-44.515625-57.574219-44.515625zm0 0"/><path d="m437.371094 74.988281c-48.339844-48.359375-112.601563-74.988281-180.960938-74.988281s-132.621094 26.628906-180.960937 74.988281c-48.328125 48.351563-74.949219 112.640625-74.949219 181.011719 0 32.300781 6.171875 64.480469 17.96875 94.339844 19-17.210938 40.09375-26.378906 69.621094-25.917969 52.464844.816406 101.339844 51.882813 100.761718 102.789063-.289062 25.167968-6.273437 49.519531-22.75 68.359374 28.71875 10.800782 59.457032 16.429688 90.308594 16.429688 68.359375 0 132.621094-26.628906 180.960938-74.980469 48.328125-48.347656 74.949218-112.640625 74.949218-181.019531 0-68.371094-26.621093-132.660156-74.949218-181.011719zm-106.472656 274.703125h-148.976563c-8.28125 0-15-6.710937-15-15 0-33.550781 18.546875-62.851562 45.929687-78.171875-10.421874-10.859375-16.832031-25.589843-16.832031-41.800781 0-33.308594 27.089844-60.398438 60.390625-60.398438 33.300782 0 60.390625 27.089844 60.390625 60.398438 0 16.210938-6.410156 30.941406-16.832031 41.800781 27.382812 15.320313 45.929688 44.621094 45.929688 78.171875 0 8.289063-6.71875 15-15 15zm0 0"/></svg>