<?xml version="1.0" encoding="iso-8859-1"?>
<!-- Generator: Adobe Illustrator 19.0.0, SVG Export Plug-In . SVG Version: 6.00 Build 0)  -->
<svg version="1.1" id="Capa_1" xmlns="http://www.w3.org/2000/svg" xmlns:xlink="http://www.w3.org/1999/xlink" x="0px" y="0px"
	 viewBox="0 0 539.077 539.077" style="enable-background:new 0 0 539.077 539.077;" xml:space="preserve">
<g>
	<g>
		<path d="M460.462,527.846H325.692c-6.208,0-11.231-5.023-11.231-11.231v-146h-89.846v146c0,6.208-5.023,11.231-11.231,11.231
			H78.615c-6.208,0-11.231-5.023-11.231-11.231V292c0-6.208,5.023-11.231,11.231-11.231c6.208,0,11.231,5.023,11.231,11.231v213.385
			h112.308v-146c0-6.208,5.023-11.231,11.231-11.231h112.308c6.208,0,11.231,5.023,11.231,11.231v146h112.308V303.231
			c0-6.208,5.023-11.231,11.231-11.231c6.208,0,11.231,5.023,11.231,11.231v213.385
			C471.692,522.823,466.669,527.846,460.462,527.846z M527.846,292c-2.873,0-5.747-1.097-7.94-3.29L269.538,38.343L19.171,288.71
			c-4.387,4.387-11.494,4.387-15.881,0c-4.387-4.387-4.387-11.494,0-15.881L261.598,14.521c4.387-4.387,11.494-4.387,15.881,0
			l258.308,258.308c4.387,4.387,4.387,11.494,0,15.881C533.593,290.903,530.72,292,527.846,292z M438,134.769
			c-6.208,0-11.231-5.023-11.231-11.231V56.154h-67.385c-6.208,0-11.231-5.023-11.231-11.231s5.023-11.231,11.231-11.231H438
			c6.208,0,11.231,5.023,11.231,11.231v78.615C449.231,129.746,444.208,134.769,438,134.769z"/>
	</g>
</g>
<g>
</g>
<g>
</g>
<g>
</g>
<g>
</g>
<g>
</g>
<g>
</g>
<g>
</g>
<g>
</g>
<g>
</g>
<g>
</g>
<g>
</g>
<g>
</g>
<g>
</g>
<g>
</g>
<g>
</g>
</svg>
