<?xml version="1.0" encoding="iso-8859-1"?>
<!-- Generator: Adobe Illustrator 18.0.0, SVG Export Plug-In . SVG Version: 6.00 Build 0)  -->
<!DOCTYPE svg PUBLIC "-//W3C//DTD SVG 1.1//EN" "http://www.w3.org/Graphics/SVG/1.1/DTD/svg11.dtd">
<svg version="1.1" id="Capa_1" xmlns="http://www.w3.org/2000/svg" xmlns:xlink="http://www.w3.org/1999/xlink" x="0px" y="0px"
	 viewBox="0 0 75.326 75.326" style="enable-background:new 0 0 75.326 75.326;" xml:space="preserve">
<path style="fill:#231F20;" d="M20.106,24.004c0.02-0.675,0.08-2.73,1.541-3.282c1.449-0.547,2.929,0.935,3.211,1.236
	c0.377,0.404,0.356,1.037-0.047,1.414c-0.403,0.377-1.036,0.356-1.414-0.047c-0.339-0.358-0.858-0.708-1.068-0.722
	c0.015,0.034-0.192,0.359-0.225,1.459c-0.109,3.698,2.764,4.698,2.793,4.708c0.317,0.105,0.56,0.362,0.648,0.684l0.045,0.165
	c0.016,0.059,0.027,0.12,0.032,0.182c0.81,9.646,8.438,12.767,12.005,12.767s11.196-3.121,12.005-12.767
	c0.005-0.062,0.016-0.123,0.032-0.182l0.045-0.165c0.089-0.322,0.332-0.578,0.648-0.684c0.112-0.039,2.901-1.058,2.793-4.708
	c-0.036-1.233-0.292-1.493-0.295-1.496c-0.109,0.031-0.666,0.403-0.998,0.758c-0.377,0.404-1.01,0.424-1.414,0.047
	c-0.403-0.377-0.424-1.01-0.047-1.414c0.283-0.302,1.766-1.783,3.212-1.236c1.461,0.552,1.521,2.606,1.541,3.282
	c0.107,3.633-2.035,5.644-3.568,6.415c-1.037,9.756-8.731,14.149-13.955,14.149s-12.917-4.394-13.955-14.149
	C22.141,29.648,19.999,27.638,20.106,24.004z M65.724,53.549c0-0.051-0.004-0.102-0.012-0.152
	c-1.057-6.872-6.599-13.306-14.12-16.394c-0.511-0.209-1.096,0.034-1.305,0.545s0.035,1.095,0.545,1.305
	c6.858,2.815,11.91,8.608,12.891,14.773l0.004,10.984c0.003,0.036,0.28,3.557-1.77,5.791c-1.16,1.264-2.885,1.904-5.129,1.904
	c-0.552,0-1,0.448-1,1s0.448,1,1,1c2.834,0,5.06-0.863,6.614-2.565c2.644-2.895,2.293-7.13,2.281-7.218V53.549z M18.244,72.307
	c-2.244,0-3.969-0.641-5.129-1.905c-2.05-2.233-1.773-5.755-1.766-5.878V53.627c0.982-6.165,6.033-11.958,12.891-14.773
	c0.511-0.21,0.755-0.794,0.545-1.305c-0.21-0.511-0.793-0.754-1.305-0.545c-7.52,3.088-13.062,9.522-14.119,16.394
	c-0.008,0.05-0.012,0.101-0.012,0.152l0.004,10.884c-0.016,0.179-0.367,4.414,2.277,7.308c1.554,1.702,3.78,2.565,6.614,2.565
	c0.552,0,1-0.448,1-1S18.796,72.307,18.244,72.307z M52.456,71.055c-1.23,0-2.352-0.432-3.258-1.131
	c-2.883,3.431-7.084,5.402-11.569,5.402c-4.487,0-8.65-1.963-11.531-5.377c-0.901,0.684-2.011,1.106-3.227,1.106
	c-2.961,0-5.37-2.409-5.37-5.37l-0.001-6.814c-0.008-1.463-0.017-3.122,1.161-4.307c0.88-0.885,2.258-1.315,4.21-1.315
	c0.472,0,0.907,0.028,1.313,0.078c2.573-5.013,7.785-8.228,13.446-8.228c5.631,0,10.759,3.098,13.383,8.085
	c0.026,0.05,0.028,0.103,0.045,0.155c0.43-0.058,0.893-0.09,1.399-0.09c1.953,0,3.33,0.43,4.21,1.315
	c1.178,1.185,1.169,2.843,1.161,4.307l-0.001,6.814C57.826,68.646,55.417,71.055,52.456,71.055z M40.213,47.357v6.079
	c1.925,0.737,3.455,2.267,4.191,4.191h2.701c0.059-1.1,0.287-2.206,1.14-3.063c0.251-0.253,0.555-0.458,0.889-0.637
	C47.249,50.481,43.976,48.109,40.213,47.357z M28.24,62.714h2.582c-0.288-0.781-0.454-1.622-0.454-2.502
	c0-0.197,0.014-0.391,0.03-0.584h-2.158L28.24,62.714z M37.629,65.472c2.9,0,5.26-2.36,5.26-5.26s-2.359-5.26-5.26-5.26
	s-5.26,2.359-5.26,5.26S34.729,65.472,37.629,65.472z M44.889,60.212c0,0.88-0.165,1.721-0.454,2.502h2.65l-0.001-3.086h-2.226
	C44.875,59.821,44.889,60.015,44.889,60.212z M37.629,47.099c-0.196,0-0.39,0.013-0.584,0.021v5.862
	c0.193-0.016,0.387-0.03,0.584-0.03s0.391,0.014,0.584,0.03v-5.863C38.019,47.11,37.825,47.099,37.629,47.099z M26.134,53.902
	c0.356,0.185,0.682,0.396,0.946,0.662c0.853,0.857,1.081,1.963,1.14,3.063h2.633c0.737-1.925,2.267-3.455,4.191-4.191v-6.072
	C31.294,48.125,28.003,50.506,26.134,53.902z M25.928,67.08h-1.97c-0.552,0-1-0.448-1-1s0.448-1,1-1h2.281l0-1.622h-2.282
	c-0.552,0-1-0.448-1-1s0.448-1,1-1h2.282l0-1.752h-2.283c-0.552,0-1-0.448-1-1s0.448-1,1-1h2.256
	c-0.042-0.713-0.163-1.34-0.552-1.732c-0.479-0.481-1.418-0.726-2.792-0.726c-1.374,0-2.313,0.244-2.792,0.726
	c-0.591,0.595-0.585,1.708-0.579,2.885l0.001,6.825c0,1.858,1.512,3.37,3.37,3.37C24.229,69.055,25.396,68.242,25.928,67.08z
	 M47.78,68.515c0.026-0.032,0.063-0.047,0.091-0.075c-0.488-0.808-0.785-1.744-0.785-2.755l0-0.971h-3.772
	c-1.331,1.677-3.382,2.758-5.685,2.758c-2.303,0-4.355-1.081-5.686-2.76c-0.002,0-0.004,0.001-0.006,0.001H28.24l0,0.971
	c0,1.018-0.301,1.961-0.795,2.773c2.505,3.092,6.2,4.868,10.184,4.868C41.576,73.326,45.276,71.572,47.78,68.515z M52.456,69.055
	c1.858,0,3.37-1.512,3.37-3.37l0.001-6.825c0.006-1.178,0.012-2.291-0.579-2.886c-0.479-0.481-1.418-0.726-2.792-0.726
	c-1.374,0-2.313,0.244-2.792,0.726c-0.39,0.392-0.511,1.019-0.552,1.731h2.256c0.552,0,1,0.448,1,1s-0.448,1-1,1h-2.283l0,1.752
	h2.283c0.552,0,1,0.448,1,1s-0.448,1-1,1h-2.282l0,1.622h2.282c0.552,0,1,0.448,1,1s-0.448,1-1,1h-1.97
	C49.93,68.242,51.097,69.055,52.456,69.055z M38.213,25.029v4.845h-2.169c-0.552,0-1,0.448-1,1s0.448,1,1,1h3.169
	c0.552,0,1-0.448,1-1v-5.845c0-0.552-0.448-1-1-1S38.213,24.477,38.213,25.029z M21.57,16.916c0-7.055,0.01-14.326,12.452-15.466
	C34.187,0.641,35.736,0,37.629,0c1.893,0,3.442,0.641,3.608,1.449c12.441,1.14,12.451,8.411,12.451,15.466c0,0.552-0.448,1-1,1
	H22.57C22.018,17.916,21.57,17.468,21.57,16.916z M23.571,15.916h28.116C51.661,8.783,51.067,3.29,37.629,3.29
	C24.191,3.29,23.597,8.783,23.571,15.916z M39.441,11.369h-3.624c-1.88,0-3.418,1.18-3.418,2.623h10.461
	C42.859,12.549,41.321,11.369,39.441,11.369z M45.15,44.253c-0.235,0.5-0.02,1.095,0.48,1.33l4.779,2.243
	c0.135,0.063,0.28,0.095,0.425,0.095c0.176,0,0.352-0.046,0.508-0.139c0.285-0.168,0.468-0.466,0.49-0.796l0.378-5.757
	c0.036-0.551-0.381-1.027-0.933-1.063c-0.551-0.032-1.027,0.382-1.063,0.933l-0.282,4.295l-3.453-1.621
	C45.98,43.538,45.385,43.752,45.15,44.253z M28.778,43.773l-3.452,1.621l-0.282-4.295c-0.037-0.551-0.519-0.973-1.063-0.933
	c-0.551,0.037-0.969,0.513-0.933,1.063l0.378,5.757c0.022,0.33,0.205,0.628,0.49,0.796c0.156,0.092,0.332,0.139,0.508,0.139
	c0.145,0,0.29-0.031,0.425-0.095l4.779-2.243c0.5-0.235,0.715-0.83,0.48-1.33C29.873,43.753,29.277,43.539,28.778,43.773z
	 M19.497,20.254c0-0.552-0.447-0.999-0.999-0.999c-0.149,0-14.906,0.174-14.906,15.246v38.158c0,0.552,0.448,1,1,1s1-0.448,1-1
	V34.501c0-13.054,12.381-13.245,12.908-13.246C19.051,21.253,19.498,20.805,19.497,20.254z M56.829,19.255c-0.552,0-1,0.448-1,1
	s0.448,1,1,1c0.527,0,12.906,0.15,12.906,13.246v38.158c0,0.552,0.448,1,1,1s1-0.448,1-1V34.501
	C71.734,19.43,56.978,19.255,56.829,19.255z"/>
<g>
</g>
<g>
</g>
<g>
</g>
<g>
</g>
<g>
</g>
<g>
</g>
<g>
</g>
<g>
</g>
<g>
</g>
<g>
</g>
<g>
</g>
<g>
</g>
<g>
</g>
<g>
</g>
<g>
</g>
</svg>
