<svg height="512pt" viewBox="0 -15 512.00002 512" width="512pt" xmlns="http://www.w3.org/2000/svg"><path d="m68.925781 246.800781h-61.320312c-4.199219 0-7.605469 3.402344-7.605469 7.601563v220.210937c0 4.199219 3.40625 7.605469 7.605469 7.605469h61.320312c4.199219 0 7.605469-3.40625 7.605469-7.605469v-69.492187c0-4.199219-3.40625-7.601563-7.605469-7.601563s-7.601562 3.402344-7.601562 7.601563v61.890625h-46.117188v-205.003907h46.117188v117.765626c0 4.203124 3.402343 7.605468 7.601562 7.605468s7.605469-3.402344 7.605469-7.605468v-125.371094c0-4.199219-3.40625-7.601563-7.605469-7.601563zm0 0"/><path d="m177.792969 317.5625h-61.320313c-4.199218 0-7.605468 3.402344-7.605468 7.601562v149.449219c0 4.199219 3.40625 7.605469 7.605468 7.605469h61.320313c4.203125 0 7.605469-3.40625 7.605469-7.605469v-149.449219c0-4.199218-3.402344-7.601562-7.605469-7.601562zm-7.601563 149.449219h-46.117187v-134.242188h46.117187zm0 0"/><path d="m286.664062 199.625h-61.324218c-4.199219 0-7.605469 3.402344-7.605469 7.601562v267.386719c0 4.199219 3.40625 7.605469 7.605469 7.605469h61.324218c4.199219 0 7.601563-3.40625 7.601563-7.605469v-267.386719c0-4.199218-3.402344-7.601562-7.601563-7.601562zm-7.605468 267.386719h-46.117188v-252.179688h46.117188zm0 0"/><path d="m395.53125 235.007812h-61.324219c-4.199219 0-7.605469 3.402344-7.605469 7.601563v232.003906c0 4.199219 3.40625 7.605469 7.605469 7.605469h61.324219c4.199219 0 7.601562-3.40625 7.601562-7.605469v-232.003906c0-4.199219-3.402343-7.601563-7.601562-7.601563zm-7.605469 232.003907h-46.117187v-216.796875h46.117187zm0 0"/><path d="m504.394531 128.863281h-61.320312c-4.199219 0-7.605469 3.402344-7.605469 7.601563v100.355468c0 4.199219 3.40625 7.605469 7.605469 7.605469s7.601562-3.40625 7.601562-7.605469v-92.75h46.117188v322.941407h-46.117188v-204.839844c0-4.199219-3.402343-7.605469-7.601562-7.605469s-7.605469 3.40625-7.605469 7.605469v212.441406c0 4.199219 3.40625 7.605469 7.605469 7.605469h61.320312c4.199219 0 7.605469-3.40625 7.605469-7.605469v-338.148437c0-4.199219-3.40625-7.601563-7.605469-7.601563zm0 0"/><path d="m452.195312 69.875c6.140626 4.195312 13.558594 6.65625 21.539063 6.65625 21.101563 0 38.265625-17.167969 38.265625-38.265625 0-21.101563-17.164062-38.265625-38.265625-38.265625s-38.265625 17.164062-38.265625 38.265625c0 7.628906 2.253906 14.738281 6.117188 20.714844l-55.183594 53.816406c-6.136719-4.195313-13.554688-6.652344-21.535156-6.652344-14.261719 0-26.714844 7.847657-33.296876 19.445313l-37.5625-12.199219c.164063-1.433594.257813-2.886719.257813-4.363281 0-21.097656-17.167969-38.265625-38.265625-38.265625-21.101562 0-38.265625 17.167969-38.265625 38.265625 0 8.351562 2.699219 16.085937 7.257813 22.382812l-58.015626 62.847656c-5.789062-3.523437-12.585937-5.558593-19.84375-5.558593-10.671874 0-20.332031 4.394531-27.277343 11.464843l-46.011719-29.902343c1.726562-4.355469 2.6875-9.097657 2.6875-14.058594 0-21.101563-17.167969-38.265625-38.269531-38.265625-21.097657 0-38.261719 17.164062-38.261719 38.265625 0 21.097656 17.164062 38.265625 38.265625 38.265625 10.671875 0 20.332031-4.398438 27.28125-11.46875l46.007813 29.902344c-1.726563 4.355468-2.6875 9.097656-2.6875 14.0625 0 21.101562 17.167968 38.265625 38.265624 38.265625 21.101563 0 38.269532-17.164063 38.269532-38.265625 0-8.351563-2.699219-16.082032-7.257813-22.382813l58.015625-62.847656c5.789063 3.527344 12.582032 5.558594 19.84375 5.558594 14.257813 0 26.714844-7.847657 33.296875-19.445313l37.558594 12.199219c-.164063 1.433594-.253906 2.886719-.253906 4.363281 0 21.101563 17.164062 38.265625 38.265625 38.265625 21.101562 0 38.265625-17.164062 38.265625-38.265625 0-7.632812-2.253907-14.742187-6.117188-20.714844zm-413.929687 109.386719c-12.714844 0-23.058594-10.34375-23.058594-23.058594s10.34375-23.058594 23.058594-23.058594 23.058594 10.34375 23.058594 23.058594-10.34375 23.058594-23.058594 23.058594zm108.867187 70.761719c-12.714843 0-23.058593-10.34375-23.058593-23.058594s10.34375-23.058594 23.058593-23.058594c12.714844 0 23.058594 10.34375 23.058594 23.058594s-10.34375 23.058594-23.058594 23.058594zm108.867188-117.9375c-12.714844 0-23.058594-10.34375-23.058594-23.058594s10.34375-23.058594 23.058594-23.058594 23.058594 10.34375 23.058594 23.058594-10.34375 23.058594-23.058594 23.058594zm217.734375-116.878907c12.714844 0 23.058594 10.34375 23.058594 23.058594s-10.34375 23.058594-23.058594 23.058594-23.058594-10.34375-23.058594-23.058594 10.34375-23.058594 23.058594-23.058594zm-108.867187 152.257813c-12.714844 0-23.058594-10.339844-23.058594-23.054688s10.34375-23.058594 23.058594-23.058594c12.714843 0 23.058593 10.34375 23.058593 23.058594s-10.34375 23.054688-23.058593 23.054688zm0 0"/></svg>