<?xml version="1.0" encoding="iso-8859-1"?>
<!-- Generator: Adobe Illustrator 19.0.0, SVG Export Plug-In . SVG Version: 6.00 Build 0)  -->
<svg version="1.1" id="Capa_1" xmlns="http://www.w3.org/2000/svg" xmlns:xlink="http://www.w3.org/1999/xlink" x="0px" y="0px"
	 viewBox="0 0 512.001 512.001" style="enable-background:new 0 0 512.001 512.001;" xml:space="preserve">
<g>
	<g>
		<path d="M275.138,345.48l-38.529-16.819l-21.076-21.076c-1.375-1.375-3.231-2.156-5.173-2.19v-12.952
			c18.055-11.799,31.25-30.659,35.407-53.138c0.006-0.007,0.013-0.015,0.02-0.021c2.135,0.126,4.297-0.063,6.425-0.567
			c9.912-2.345,17.105-11.851,17.105-22.601v-5.743c0-7.948-3.99-15.09-10.151-19.21c1.84-7.199,2.781-14.566,2.781-21.983
			c0-32.571-17.645-61.253-44.226-77.673c-0.158-28.383-23.291-51.427-51.71-51.427c-28.42,0-51.553,23.044-51.711,51.427
			c-26.58,16.42-44.225,45.102-44.225,77.672c0,7.396,0.936,14.744,2.765,21.923c-6.157,4.099-10.135,11.271-10.135,19.356v5.656
			c0,10.75,7.193,20.255,17.104,22.601c2.127,0.503,4.286,0.693,6.425,0.567c0.007,0.007,0.014,0.015,0.02,0.021
			c4.157,22.479,17.352,41.339,35.407,53.138v12.951c-1.876,0.033-3.742,0.76-5.173,2.191l-21.076,21.076L56.886,345.48
			c-19.429,8.481-31.879,28.409-30.981,49.589l4.651,109.749c0.171,4.03,3.492,7.183,7.488,7.183c0.107,0,0.215-0.002,0.323-0.007
			c4.139-0.175,7.351-3.672,7.176-7.811l-4.651-109.749c-0.311-7.331,1.645-14.442,5.315-20.512l21.021,25.226
			c6.59,7.907,10.219,17.931,10.219,28.224V504.5c0,4.142,3.358,7.5,7.5,7.5c4.142,0,7.5-3.358,7.5-7.5v-77.128
			c0-13.795-4.864-27.229-13.695-37.827l-22.244-26.692c1.984-1.401,4.107-2.633,6.38-3.625l33.821-14.764l23.86,38.73
			c2.281,3.702,6.053,6.213,10.348,6.89c0.773,0.122,1.548,0.182,2.318,0.182c3.512,0,6.933-1.245,9.646-3.56l15.632-13.339V504.5
			c0,4.142,3.358,7.5,7.5,7.5c4.142,0,7.5-3.358,7.5-7.5V373.366l15.631,13.339c2.713,2.315,6.133,3.56,9.646,3.56
			c0.771,0,1.546-0.06,2.318-0.182c4.295-0.676,8.067-3.188,10.348-6.89l23.86-38.73l33.821,14.764
			c2.273,0.992,4.396,2.224,6.38,3.625l-22.244,26.692c-8.832,10.598-13.695,24.032-13.695,37.827V504.5c0,4.142,3.358,7.5,7.5,7.5
			c4.142,0,7.5-3.358,7.5-7.5v-77.128c0-10.292,3.629-20.316,10.219-28.224l21.021-25.226c3.67,6.07,5.625,13.181,5.315,20.512
			l-4.651,109.749c-0.175,4.138,3.037,7.635,7.176,7.811c0.108,0.005,0.215,0.007,0.323,0.007c3.996,0,7.317-3.153,7.488-7.183
			l4.651-109.749C307.017,373.889,294.567,353.961,275.138,345.48z M166.012,55.081c17.424,0,32.041,12.203,35.781,28.509
			c-11.063-4.292-23.139-6.661-35.781-6.661c-12.642,0-24.719,2.369-35.782,6.661C133.97,67.284,148.588,55.081,166.012,55.081z
			 M100.991,236.498c-1.355-7.378-8.188-12.736-15.553-12.193c-0.707,0.052-1.438-0.01-2.173-0.184
			c-3.169-0.75-5.559-4.191-5.559-8.004v-5.656c0-3.832,2.579-7.287,5.871-7.864c2.767-0.486,5.424,0.531,7.105,2.723
			c1.398,1.823,3.261,3.125,5.389,3.768c3.113,0.939,6.55,0.389,9.192-1.476c6.096-4.304,11.263-9.762,15.356-16.221
			c2.217-3.499,1.178-8.133-2.32-10.35c-3.501-2.218-8.133-1.177-10.35,2.321c-2.334,3.683-5.126,6.918-8.329,9.656
			c-3.422-3.013-7.674-4.883-12.186-5.394c-1.559-6.042-2.359-12.223-2.359-18.443c0-42.596,36.308-77.251,80.936-77.251
			c44.628,0,80.936,34.655,80.936,77.251c0,6.211-0.797,12.384-2.352,18.417c-2.204,0.157-4.458,0.523-6.522,1.073l-6.067-4.989
			c-2.901-2.386-6.544-3.58-10.25-3.36c-6.757,0.399-24.65,0.866-44.829-3.391c-24.939-5.261-44.043-15.659-56.782-30.904
			c-2.656-3.179-7.386-3.602-10.564-0.946c-3.179,2.656-3.602,7.386-0.946,10.564c14.949,17.89,36.884,29.99,65.196,35.963
			c21.839,4.607,41.237,4.127,48.69,3.694l9.352,7.69c2.422,1.992,5.823,2.268,8.534,0.691c1.356-0.76,5.977-1.479,8.019-1.073
			c3.358,0.668,5.891,4.005,5.891,7.763v5.743c0,3.813-2.39,7.254-5.559,8.004c-0.735,0.174-1.466,0.236-2.173,0.184
			c-7.358-0.542-14.197,4.815-15.553,12.194c-5.763,31.377-33.108,54.151-65.021,54.151
			C134.098,290.649,106.754,267.875,100.991,236.498z M133.259,375.196l-24.08-39.086l12.615-12.615l33.175,33.175L133.259,375.196z
			 M166.012,346.5l-29.349-29.348v-17.004c9.145,3.551,19.049,5.501,29.349,5.501s20.204-1.95,29.348-5.501v17.004L166.012,346.5z
			 M198.765,375.196l-21.709-18.526l33.175-33.175l12.615,12.615L198.765,375.196z"/>
	</g>
</g>
<g>
	<g>
		<path d="M136.533,423.303h-22.109c-4.142,0-7.5,3.358-7.5,7.5c0,4.142,3.358,7.5,7.5,7.5h22.109c4.142,0,7.5-3.358,7.5-7.5
			C144.033,426.661,140.675,423.303,136.533,423.303z"/>
	</g>
</g>
<g>
	<g>
		<path d="M350.383,0c-50.526,0-96.567,27.785-120.155,72.514c-1.933,3.664-0.529,8.2,3.135,10.132
			c3.665,1.932,8.201,0.529,10.132-3.135C264.481,39.719,305.437,15,350.383,15c66.586,0,120.758,54.172,120.758,120.758
			s-54.172,120.758-120.758,120.758c-22.687,0-44.793-6.324-63.928-18.289c-3.512-2.197-8.139-1.129-10.335,2.383
			c-2.196,3.512-1.129,8.139,2.383,10.335c21.522,13.458,46.378,20.571,71.88,20.571c74.857,0,135.758-60.901,135.758-135.758
			S425.24,0,350.383,0z"/>
	</g>
</g>
<g>
	<g>
		<path d="M417.189,147.155l-3.888-2.245c0.462-3.085,0.696-6.147,0.696-9.152s-0.233-6.067-0.696-9.152l3.888-2.245
			c6.754-3.898,9.581-12.282,6.574-19.5c-1.286-3.088-2.768-6.09-4.404-8.925c-1.637-2.835-3.497-5.62-5.528-8.277
			c-4.748-6.213-13.421-7.955-20.174-4.057l-3.905,2.255c-4.821-3.807-10.174-6.909-15.836-9.177v-4.476
			c-0.001-7.799-5.848-14.437-13.601-15.442c-6.631-0.861-13.235-0.861-19.865,0c-7.753,1.005-13.6,7.645-13.6,15.443v4.476
			c-5.662,2.268-11.015,5.37-15.835,9.177l-3.905-2.255c-6.754-3.899-15.427-2.155-20.175,4.057
			c-2.032,2.659-3.892,5.443-5.528,8.277c-1.637,2.836-3.119,5.839-4.404,8.925c-3.005,7.218-0.179,15.601,6.574,19.5l3.888,2.245
			c-0.462,3.084-0.696,6.146-0.696,9.152c0,3.006,0.233,6.068,0.696,9.152l-3.889,2.245c-6.752,3.899-9.578,12.282-6.573,19.5
			c1.285,3.085,2.767,6.088,4.404,8.926c1.638,2.836,3.498,5.621,5.528,8.277c4.747,6.211,13.419,7.954,20.174,4.056l3.906-2.255
			c4.82,3.807,10.174,6.909,15.835,9.177v4.475c0,7.798,5.847,14.437,13.601,15.443c3.319,0.43,6.661,0.648,9.932,0.648
			s6.612-0.218,9.933-0.648c7.753-1.006,13.6-7.646,13.6-15.443v-4.475c5.662-2.268,11.015-5.37,15.835-9.177l3.906,2.255
			c6.754,3.899,15.427,2.155,20.173-4.056c2.03-2.655,3.89-5.44,5.529-8.279c1.636-2.835,3.118-5.838,4.403-8.925
			C426.768,159.438,423.943,151.054,417.189,147.155z M397.629,124.51c0.907,3.823,1.367,7.607,1.367,11.247
			c0,3.64-0.46,7.424-1.367,11.248c-0.765,3.225,0.677,6.569,3.547,8.226l8.511,4.914c0.247,0.142,0.344,0.461,0.227,0.742
			c-1.039,2.495-2.233,4.915-3.547,7.192c-1.317,2.281-2.815,4.524-4.456,6.67c-0.185,0.241-0.509,0.316-0.756,0.174l-8.518-4.918
			c-2.872-1.658-6.491-1.233-8.903,1.045c-5.537,5.235-12.266,9.134-19.461,11.277c-3.18,0.947-5.359,3.871-5.359,7.188v9.795
			c0,0.285-0.228,0.529-0.529,0.568c-5.363,0.695-10.644,0.695-16.005,0c-0.302-0.04-0.53-0.284-0.53-0.568v-9.795
			c0-3.317-2.18-6.241-5.359-7.188c-7.195-2.143-13.924-6.042-19.461-11.277c-1.429-1.351-3.283-2.05-5.154-2.05
			c-1.285,0-2.579,0.33-3.748,1.005l-8.518,4.918c-0.247,0.143-0.572,0.067-0.757-0.175c-1.64-2.145-3.139-4.389-4.455-6.668
			c-1.316-2.28-2.51-4.7-3.548-7.192c-0.117-0.282-0.02-0.601,0.226-0.743l8.512-4.914c2.871-1.657,4.313-5.002,3.548-8.227
			c-0.907-3.821-1.367-7.605-1.367-11.247c0-3.642,0.46-7.426,1.367-11.247c0.765-3.225-0.677-6.57-3.548-8.227l-8.512-4.914
			c-0.246-0.142-0.343-0.461-0.227-0.742c1.039-2.493,2.232-4.913,3.548-7.192c1.315-2.277,2.814-4.521,4.455-6.668
			c0.185-0.242,0.509-0.318,0.757-0.175l8.518,4.917c2.873,1.658,6.493,1.233,8.902-1.045c5.537-5.234,12.266-9.134,19.461-11.277
			c3.179-0.947,5.359-3.87,5.359-7.188v-9.795c0-0.284,0.228-0.528,0.53-0.567c5.355-0.695,10.647-0.695,16.005,0
			c0.302,0.039,0.529,0.283,0.529,0.567V82c0,3.318,2.18,6.241,5.359,7.188c7.198,2.143,13.928,6.042,19.464,11.276
			c2.41,2.278,6.03,2.704,8.902,1.045l8.518-4.918c0.244-0.142,0.57-0.067,0.756,0.176c1.641,2.146,3.14,4.39,4.455,6.668
			c1.315,2.277,2.509,4.697,3.548,7.192c0.117,0.281,0.02,0.6-0.227,0.742l-8.512,4.914
			C398.306,117.94,396.863,121.284,397.629,124.51z"/>
	</g>
</g>
<g>
	<g>
		<path d="M374.431,128.258c-4.142,0-7.5,3.358-7.5,7.5c0,9.125-7.423,16.549-16.548,16.549s-16.548-7.424-16.548-16.549
			s7.423-16.548,16.548-16.548c4.142,0,7.5-3.358,7.5-7.5c0-4.143-3.358-7.5-7.5-7.5c-17.396,0-31.548,14.152-31.548,31.548
			s14.152,31.549,31.548,31.549s31.548-14.153,31.548-31.549C381.931,131.616,378.573,128.258,374.431,128.258z"/>
	</g>
</g>
<g>
</g>
<g>
</g>
<g>
</g>
<g>
</g>
<g>
</g>
<g>
</g>
<g>
</g>
<g>
</g>
<g>
</g>
<g>
</g>
<g>
</g>
<g>
</g>
<g>
</g>
<g>
</g>
<g>
</g>
</svg>
